<svg width="2416pt" height="1724pt" viewBox="0.00 0.00 2416.00 1724.00" xmlns="http://www.w3.org/2000/svg" xmlns:xlink="http://www.w3.org/1999/xlink">
<g id="graph1" class="graph" transform="scale(1 1) rotate(0) translate(4 1720)">
<title>ArrayLanguages</title>
<polygon fill="white" stroke="white" points="-4,5 -4,-1720 2413,-1720 2413,5 -4,5"></polygon>
<!-- APL -->
<g id="node1" class="node"><title>APL</title>
<ellipse fill="white" stroke="white" cx="434" cy="-272" rx="131.959" ry="29.3315"></ellipse>
<text text-anchor="middle" x="434" y="-276.2" font-family="Times,serif" font-size="14.00">Iverson Notation</text>
<text text-anchor="middle" x="434" y="-259.4" font-family="Times,serif" font-size="14.00">“A Programming Language”</text>
</g>
<!-- APL360 -->
<g id="node3" class="node"><title>APL360</title>
<ellipse fill="lightgrey" stroke="black" cx="750" cy="-272" rx="75.8972" ry="18"></ellipse>
<text text-anchor="middle" x="750" y="-267.8" font-family="Times,serif" font-size="14.00">𝐴𝑃𝐿\360</text>
</g>
<!-- APL&#45;&gt;APL360 -->
<g id="edge2" class="edge"><title>APL-&gt;APL360</title>
<path fill="none" stroke="black" d="M565.891,-272C599,-272 633.704,-272 663.887,-272"></path>
<polygon fill="black" stroke="black" points="663.941,-275.5 673.941,-272 663.941,-268.5 663.941,-275.5"></polygon>
</g>
<!-- APL PLUS -->
<g id="node12" class="node"><title>APL PLUS</title>
<ellipse fill="lightgrey" stroke="black" cx="996" cy="-679" rx="55.0951" ry="18"></ellipse>
<text text-anchor="middle" x="996" y="-674.8" font-family="Times,serif" font-size="14.00">APL PLUS</text>
</g>
<!-- APL360&#45;&gt;APL PLUS -->
<g id="edge18" class="edge"><title>APL360-&gt;APL PLUS</title>
<path fill="none" stroke="black" d="M760.193,-289.999C785.831,-339.794 861.04,-483.16 934,-596 946.781,-615.766 962.545,-637.148 974.845,-653.259"></path>
<polygon fill="black" stroke="black" points="972.41,-655.833 981.282,-661.624 977.957,-651.564 972.41,-655.833"></polygon>
</g>
<!-- J -->
<g id="node24" class="node"><title>J</title>
<ellipse fill="lightgrey" stroke="black" cx="1437" cy="-642" rx="27" ry="18"></ellipse>
<text text-anchor="middle" x="1437" y="-637.8" font-family="Times,serif" font-size="14.00">J</text>
</g>
<!-- APL360&#45;&gt;J -->
<g id="edge20" class="edge"><title>APL360-&gt;J</title>
<path fill="none" stroke="black" d="M769.566,-289.493C801.352,-318.803 869.069,-378.498 934,-418 1100.52,-519.304 1320.84,-601.537 1403.15,-630.652"></path>
<polygon fill="black" stroke="black" points="1402.11,-634 1412.71,-634.016 1404.44,-627.396 1402.11,-634"></polygon>
</g>
<!-- CoSy -->
<g id="node26" class="node"><title>CoSy</title>
<ellipse fill="lightgrey" stroke="black" cx="1909" cy="-459" rx="32.5039" ry="18"></ellipse>
<text text-anchor="middle" x="1909" y="-454.8" font-family="Times,serif" font-size="14.00">CoSy</text>
</g>
<!-- APL360&#45;&gt;CoSy -->
<g id="edge22" class="edge"><title>APL360-&gt;CoSy</title>
<path fill="none" stroke="black" d="M817.237,-280.396C909.236,-291.312 1080.98,-309 1228,-309 1228,-309 1228,-309 1438,-309 1482.87,-309 1769.12,-409.479 1871.59,-445.963"></path>
<polygon fill="black" stroke="black" points="1870.6,-449.327 1881.2,-449.389 1872.95,-442.734 1870.6,-449.327"></polygon>
</g>
<!-- MATLAB -->
<g id="node28" class="node"><title>MATLAB</title>
<ellipse fill="lightgrey" stroke="black" cx="996" cy="-236" rx="51.6054" ry="18"></ellipse>
<text text-anchor="middle" x="996" y="-231.8" font-family="Times,serif" font-size="14.00">MATLAB</text>
</g>
<!-- APL360&#45;&gt;MATLAB -->
<g id="edge24" class="edge"><title>APL360-&gt;MATLAB</title>
<path fill="none" stroke="black" d="M814.789,-262.588C852.993,-256.952 901.144,-249.848 938.061,-244.401"></path>
<polygon fill="black" stroke="black" points="938.775,-247.833 948.157,-242.911 937.754,-240.908 938.775,-247.833"></polygon>
</g>
<!-- Mathematica -->
<g id="node30" class="node"><title>Mathematica</title>
<ellipse fill="lightgrey" stroke="black" cx="996" cy="-164" rx="61.3916" ry="18"></ellipse>
<text text-anchor="middle" x="996" y="-159.8" font-family="Times,serif" font-size="14.00">Mathematica</text>
</g>
<!-- APL360&#45;&gt;Mathematica -->
<g id="edge26" class="edge"><title>APL360-&gt;Mathematica</title>
<path fill="none" stroke="black" d="M786.741,-256.18C830.58,-236.776 904.842,-203.906 951.826,-183.11"></path>
<polygon fill="black" stroke="black" points="953.402,-186.24 961.13,-178.992 950.569,-179.839 953.402,-186.24"></polygon>
</g>
<!-- R -->
<g id="node32" class="node"><title>R</title>
<ellipse fill="lightgrey" stroke="black" cx="996" cy="-382" rx="27" ry="18"></ellipse>
<text text-anchor="middle" x="996" y="-377.8" font-family="Times,serif" font-size="14.00">R</text>
</g>
<!-- APL360&#45;&gt;R -->
<g id="edge28" class="edge"><title>APL360-&gt;R</title>
<path fill="none" stroke="black" d="M786.219,-287.877C833.925,-309.384 918.336,-347.438 963.845,-367.955"></path>
<polygon fill="black" stroke="black" points="962.649,-371.255 973.204,-372.174 965.526,-364.873 962.649,-371.255"></polygon>
</g>
<!-- Nial -->
<g id="node34" class="node"><title>Nial</title>
<ellipse fill="lightgrey" stroke="black" cx="1229" cy="-127" rx="27.8248" ry="18"></ellipse>
<text text-anchor="middle" x="1229" y="-122.8" font-family="Times,serif" font-size="14.00">Nial</text>
</g>
<!-- APL360&#45;&gt;Nial -->
<g id="edge30" class="edge"><title>APL360-&gt;Nial</title>
<path fill="none" stroke="black" d="M765.849,-254.286C794.41,-221.761 860.695,-153.523 934,-128 1022.72,-97.1112 1135.83,-110.119 1192.4,-119.872"></path>
<polygon fill="black" stroke="black" points="1191.83,-123.325 1202.29,-121.644 1193.06,-116.434 1191.83,-123.325"></polygon>
</g>
<!-- SOL -->
<g id="node36" class="node"><title>SOL</title>
<ellipse fill="lightgrey" stroke="black" cx="996" cy="-18" rx="29.0529" ry="18"></ellipse>
<text text-anchor="middle" x="996" y="-13.8" font-family="Times,serif" font-size="14.00">SOL</text>
</g>
<!-- APL360&#45;&gt;SOL -->
<g id="edge32" class="edge"><title>APL360-&gt;SOL</title>
<path fill="none" stroke="black" d="M764.537,-254.062C793.398,-216.411 864.07,-127.317 934,-63 944.165,-53.6507 956.247,-44.4044 966.967,-36.7478"></path>
<polygon fill="black" stroke="black" points="969.024,-39.5796 975.208,-30.9766 965.009,-33.8456 969.024,-39.5796"></polygon>
</g>
<!-- A+ -->
<g id="node4" class="node"><title>A+</title>
<ellipse fill="lightgrey" stroke="black" cx="1437" cy="-752" rx="27" ry="18"></ellipse>
<text text-anchor="middle" x="1437" y="-747.8" font-family="Times,serif" font-size="14.00">A+</text>
</g>
<!-- BQN -->
<g id="node6" class="node"><title>BQN</title>
<ellipse fill="lightgrey" stroke="black" cx="2376" cy="-1113" rx="31.339" ry="18"></ellipse>
<text text-anchor="middle" x="2376" y="-1108.8" font-family="Times,serif" font-size="14.00">BQN</text>
</g>
<!-- A+&#45;&gt;BQN -->
<g id="edge4" class="edge"><title>A+-&gt;BQN</title>
<path fill="none" stroke="black" d="M1440.28,-770.048C1454.32,-880.051 1530.16,-1457.56 1582,-1516 1678.44,-1624.72 2132.06,-1616.58 2236,-1515 2344.51,-1408.96 2368.38,-1214.2 2373.57,-1141.43"></path>
<polygon fill="black" stroke="black" points="2377.08,-1141.42 2374.24,-1131.21 2370.1,-1140.96 2377.08,-1141.42"></polygon>
</g>
<!-- K -->
<g id="node8" class="node"><title>K</title>
<ellipse fill="lightgrey" stroke="black" cx="1642" cy="-752" rx="27" ry="18"></ellipse>
<text text-anchor="middle" x="1642" y="-747.8" font-family="Times,serif" font-size="14.00">K</text>
</g>
<!-- A+&#45;&gt;K -->
<g id="edge6" class="edge"><title>A+-&gt;K</title>
<path fill="none" stroke="black" d="M1464.12,-752C1499.9,-752 1564.32,-752 1604.75,-752"></path>
<polygon fill="black" stroke="black" points="1604.98,-755.5 1614.98,-752 1604.98,-748.5 1604.98,-755.5"></polygon>
</g>
<!-- K&#45;&gt;CoSy -->
<g id="edge80" class="edge"><title>K-&gt;CoSy</title>
<path fill="none" stroke="black" d="M1649.68,-734.575C1668.12,-688.719 1724.1,-563.518 1810,-495 1826.82,-481.587 1849.1,-472.874 1868.17,-467.385"></path>
<polygon fill="black" stroke="black" points="1869.34,-470.696 1878.09,-464.729 1867.52,-463.934 1869.34,-470.696"></polygon>
</g>
<!-- April -->
<g id="node46" class="node"><title>April</title>
<ellipse fill="lightgrey" stroke="black" cx="1909" cy="-966" rx="31.3371" ry="18"></ellipse>
<text text-anchor="middle" x="1909" y="-961.8" font-family="Times,serif" font-size="14.00">April</text>
</g>
<!-- K&#45;&gt;April -->
<g id="edge78" class="edge"><title>K-&gt;April</title>
<path fill="none" stroke="black" d="M1654.06,-768.14C1678.4,-802.537 1740.03,-883.694 1810,-930 1828.07,-941.956 1850.62,-950.596 1869.54,-956.409"></path>
<polygon fill="black" stroke="black" points="1868.76,-959.827 1879.34,-959.272 1870.72,-953.108 1868.76,-959.827"></polygon>
</g>
<!-- RAD -->
<g id="node54" class="node"><title>RAD</title>
<ellipse fill="lightgrey" stroke="black" cx="1909" cy="-894" rx="31.339" ry="18"></ellipse>
<text text-anchor="middle" x="1909" y="-889.8" font-family="Times,serif" font-size="14.00">RAD</text>
</g>
<!-- K&#45;&gt;RAD -->
<g id="edge88" class="edge"><title>K-&gt;RAD</title>
<path fill="none" stroke="black" d="M1660.79,-765.097C1690.52,-786.573 1752.73,-829.712 1810,-858 1829.56,-867.662 1852.39,-876.197 1871.09,-882.529"></path>
<polygon fill="black" stroke="black" points="1870.14,-885.9 1880.74,-885.723 1872.34,-879.255 1870.14,-885.9"></polygon>
</g>
<!-- I -->
<g id="node61" class="node"><title>I</title>
<ellipse fill="lightgrey" stroke="black" cx="1909" cy="-678" rx="27" ry="18"></ellipse>
<text text-anchor="middle" x="1909" y="-673.8" font-family="Times,serif" font-size="14.00">I</text>
</g>
<!-- K&#45;&gt;I -->
<g id="edge84" class="edge"><title>K-&gt;I</title>
<path fill="none" stroke="black" d="M1667.46,-745.171C1714.88,-731.927 1819.45,-702.726 1873.76,-687.562"></path>
<polygon fill="black" stroke="black" points="1874.91,-690.873 1883.6,-684.813 1873.03,-684.131 1874.91,-690.873"></polygon>
</g>
<!-- Glee -->
<g id="node66" class="node"><title>Glee</title>
<ellipse fill="lightgrey" stroke="black" cx="1909" cy="-822" rx="29.0318" ry="18"></ellipse>
<text text-anchor="middle" x="1909" y="-817.8" font-family="Times,serif" font-size="14.00">Glee</text>
</g>
<!-- K&#45;&gt;Glee -->
<g id="edge82" class="edge"><title>K-&gt;Glee</title>
<path fill="none" stroke="black" d="M1667.46,-758.46C1714.28,-770.829 1816.81,-797.912 1871.67,-812.403"></path>
<polygon fill="black" stroke="black" points="1871.09,-815.87 1881.65,-815.04 1872.88,-809.102 1871.09,-815.87"></polygon>
</g>
<!-- SaC -->
<g id="node70" class="node"><title>SaC</title>
<ellipse fill="lightgrey" stroke="black" cx="1909" cy="-387" rx="27.2641" ry="18"></ellipse>
<text text-anchor="middle" x="1909" y="-382.8" font-family="Times,serif" font-size="14.00">SaC</text>
</g>
<!-- K&#45;&gt;SaC -->
<g id="edge90" class="edge"><title>K-&gt;SaC</title>
<path fill="none" stroke="black" d="M1647.11,-734.179C1660.58,-679.635 1708.5,-513.211 1810,-423 1827.5,-407.446 1852.29,-398.423 1872.56,-393.3"></path>
<polygon fill="black" stroke="black" points="1873.44,-396.69 1882.39,-391.025 1871.86,-389.87 1873.44,-396.69"></polygon>
</g>
<!-- Q -->
<g id="node76" class="node"><title>Q</title>
<ellipse fill="lightgrey" stroke="black" cx="1909" cy="-750" rx="27" ry="18"></ellipse>
<text text-anchor="middle" x="1909" y="-745.8" font-family="Times,serif" font-size="14.00">Q</text>
</g>
<!-- K&#45;&gt;Q -->
<g id="edge86" class="edge"><title>K-&gt;Q</title>
<path fill="none" stroke="black" d="M1669.38,-751.801C1717,-751.442 1817.4,-750.684 1871.54,-750.275"></path>
<polygon fill="black" stroke="black" points="1871.76,-753.774 1881.73,-750.198 1871.7,-746.774 1871.76,-753.774"></polygon>
</g>
<!-- APL+ -->
<g id="node9" class="node"><title>APL+</title>
<ellipse fill="lightgrey" stroke="black" cx="1642" cy="-1698" rx="34.9437" ry="18"></ellipse>
<text text-anchor="middle" x="1642" y="-1693.8" font-family="Times,serif" font-size="14.00">APL+</text>
</g>
<!-- APL64 -->
<g id="node11" class="node"><title>APL64</title>
<ellipse fill="lightgrey" stroke="black" cx="1909" cy="-1698" rx="38.8652" ry="18"></ellipse>
<text text-anchor="middle" x="1909" y="-1693.8" font-family="Times,serif" font-size="14.00">APL64</text>
</g>
<!-- APL+&#45;&gt;APL64 -->
<g id="edge8" class="edge"><title>APL+-&gt;APL64</title>
<path fill="none" stroke="black" d="M1676.83,-1698C1723.14,-1698 1806.54,-1698 1859.49,-1698"></path>
<polygon fill="black" stroke="black" points="1859.66,-1701.5 1869.66,-1698 1859.66,-1694.5 1859.66,-1701.5"></polygon>
</g>
<!-- NARS -->
<g id="node14" class="node"><title>NARS</title>
<ellipse fill="lightgrey" stroke="black" cx="1437" cy="-1150" rx="36.5767" ry="18"></ellipse>
<text text-anchor="middle" x="1437" y="-1145.8" font-family="Times,serif" font-size="14.00">NARS</text>
</g>
<!-- APL PLUS&#45;&gt;NARS -->
<g id="edge10" class="edge"><title>APL PLUS-&gt;NARS</title>
<path fill="none" stroke="black" d="M1013.14,-696.322C1080.13,-768.19 1336.28,-1043.01 1413.71,-1126.08"></path>
<polygon fill="black" stroke="black" points="1411.25,-1128.58 1420.63,-1133.51 1416.37,-1123.81 1411.25,-1128.58"></polygon>
</g>
<!-- SHARP APL -->
<g id="node16" class="node"><title>SHARP APL</title>
<ellipse fill="lightgrey" stroke="black" cx="1229" cy="-679" rx="62.6192" ry="18"></ellipse>
<text text-anchor="middle" x="1229" y="-674.8" font-family="Times,serif" font-size="14.00">SHARP APL</text>
</g>
<!-- APL PLUS&#45;&gt;SHARP APL -->
<g id="edge12" class="edge"><title>APL PLUS-&gt;SHARP APL</title>
<path fill="none" stroke="black" d="M1051.45,-679C1082.64,-679 1122.16,-679 1155.9,-679"></path>
<polygon fill="black" stroke="black" points="1156.17,-682.5 1166.17,-679 1156.17,-675.5 1156.17,-682.5"></polygon>
</g>
<!-- NARS&#45;&gt;APL+ -->
<g id="edge96" class="edge"><title>NARS-&gt;APL+</title>
<path fill="none" stroke="black" d="M1439.13,-1168.19C1444.2,-1237.4 1469.84,-1488.71 1582,-1653 1589.02,-1663.29 1599.16,-1672.22 1609.05,-1679.36"></path>
<polygon fill="black" stroke="black" points="1607.36,-1682.44 1617.6,-1685.16 1611.28,-1676.65 1607.36,-1682.44"></polygon>
</g>
<!-- APL2 -->
<g id="node17" class="node"><title>APL2</title>
<ellipse fill="lightgrey" stroke="black" cx="1642" cy="-1480" rx="34.2084" ry="18"></ellipse>
<text text-anchor="middle" x="1642" y="-1475.8" font-family="Times,serif" font-size="14.00">APL2</text>
</g>
<!-- NARS&#45;&gt;APL2 -->
<g id="edge98" class="edge"><title>NARS-&gt;APL2</title>
<path fill="none" stroke="black" d="M1448.63,-1167.28C1482.06,-1221.63 1585.23,-1389.35 1625.07,-1454.11"></path>
<polygon fill="black" stroke="black" points="1622.26,-1456.21 1630.48,-1462.89 1628.22,-1452.54 1622.26,-1456.21"></polygon>
</g>
<!-- Dyalog APL -->
<g id="node41" class="node"><title>Dyalog APL</title>
<ellipse fill="lightgrey" stroke="black" cx="1642" cy="-1150" rx="60.2342" ry="18"></ellipse>
<text text-anchor="middle" x="1642" y="-1145.8" font-family="Times,serif" font-size="14.00">Dyalog APL</text>
</g>
<!-- NARS&#45;&gt;Dyalog APL -->
<g id="edge100" class="edge"><title>NARS-&gt;Dyalog APL</title>
<path fill="none" stroke="black" d="M1473.83,-1150C1500.85,-1150 1538.76,-1150 1571.65,-1150"></path>
<polygon fill="black" stroke="black" points="1571.68,-1153.5 1581.68,-1150 1571.68,-1146.5 1571.68,-1153.5"></polygon>
</g>
<!-- NARS&#45;&gt;Glee -->
<g id="edge102" class="edge"><title>NARS-&gt;Glee</title>
<path fill="none" stroke="black" d="M1454.42,-1133.93C1504.1,-1086.03 1658.7,-942.385 1810,-858 1829.68,-847.023 1853.36,-838.217 1872.51,-832.063"></path>
<polygon fill="black" stroke="black" points="1873.56,-835.402 1882.07,-829.088 1871.48,-828.718 1873.56,-835.402"></polygon>
</g>
<!-- SHARP APL&#45;&gt;A+ -->
<g id="edge112" class="edge"><title>SHARP APL-&gt;A+</title>
<path fill="none" stroke="black" d="M1269.23,-692.903C1308.07,-706.666 1366.86,-727.498 1403.26,-740.399"></path>
<polygon fill="black" stroke="black" points="1402.31,-743.774 1412.9,-743.815 1404.65,-737.176 1402.31,-743.774"></polygon>
</g>
<!-- SHARP APL&#45;&gt;J -->
<g id="edge114" class="edge"><title>SHARP APL-&gt;J</title>
<path fill="none" stroke="black" d="M1282.52,-669.568C1319.62,-662.902 1368.35,-654.151 1400.85,-648.314"></path>
<polygon fill="black" stroke="black" points="1401.57,-651.741 1410.79,-646.528 1400.33,-644.851 1401.57,-651.741"></polygon>
</g>
<!-- GNU APL -->
<g id="node19" class="node"><title>GNU APL</title>
<ellipse fill="lightgrey" stroke="black" cx="1909" cy="-1552" rx="52.7079" ry="18"></ellipse>
<text text-anchor="middle" x="1909" y="-1547.8" font-family="Times,serif" font-size="14.00">GNU APL</text>
</g>
<!-- APL2&#45;&gt;GNU APL -->
<g id="edge14" class="edge"><title>APL2-&gt;GNU APL</title>
<path fill="none" stroke="black" d="M1672.63,-1488.05C1717.38,-1500.21 1802.8,-1523.42 1857.5,-1538.28"></path>
<polygon fill="black" stroke="black" points="1856.77,-1541.71 1867.34,-1540.95 1858.6,-1534.95 1856.77,-1541.71"></polygon>
</g>
<!-- NARS2000 -->
<g id="node21" class="node"><title>NARS2000</title>
<ellipse fill="lightgrey" stroke="black" cx="1909" cy="-1480" rx="56.2034" ry="18"></ellipse>
<text text-anchor="middle" x="1909" y="-1475.8" font-family="Times,serif" font-size="14.00">NARS2000</text>
</g>
<!-- APL2&#45;&gt;NARS2000 -->
<g id="edge16" class="edge"><title>APL2-&gt;NARS2000</title>
<path fill="none" stroke="black" d="M1676.29,-1480C1717.8,-1480 1789.7,-1480 1842.43,-1480"></path>
<polygon fill="black" stroke="black" points="1842.7,-1483.5 1852.7,-1480 1842.7,-1476.5 1842.7,-1483.5"></polygon>
</g>
<!-- KAP -->
<g id="node43" class="node"><title>KAP</title>
<ellipse fill="lightgrey" stroke="black" cx="2176" cy="-1479" rx="30.1958" ry="18"></ellipse>
<text text-anchor="middle" x="2176" y="-1474.8" font-family="Times,serif" font-size="14.00">KAP</text>
</g>
<!-- GNU APL&#45;&gt;KAP -->
<g id="edge62" class="edge"><title>GNU APL-&gt;KAP</title>
<path fill="none" stroke="black" d="M1950.54,-1540.83C2001.7,-1526.74 2088.97,-1502.7 2138.27,-1489.12"></path>
<polygon fill="black" stroke="black" points="2139.47,-1492.42 2148.18,-1486.39 2137.61,-1485.67 2139.47,-1492.42"></polygon>
</g>
<!-- J&#45;&gt;BQN -->
<g id="edge66" class="edge"><title>J-&gt;BQN</title>
<path fill="none" stroke="black" d="M1463.68,-638.595C1586.61,-622.876 2113.97,-562.141 2236,-660 2304.69,-715.082 2355.69,-994.75 2370.56,-1084.93"></path>
<polygon fill="black" stroke="black" points="2367.13,-1085.65 2372.19,-1094.96 2374.04,-1084.53 2367.13,-1085.65"></polygon>
</g>
<!-- J&#45;&gt;Dyalog APL -->
<g id="edge68" class="edge"><title>J-&gt;Dyalog APL</title>
<path fill="none" stroke="black" d="M1446.71,-658.855C1454.27,-673.731 1465.34,-696.084 1474,-716 1539.67,-867.061 1606.74,-1053 1631.26,-1122.28"></path>
<polygon fill="black" stroke="black" points="1628.07,-1123.74 1634.7,-1132 1634.67,-1121.41 1628.07,-1123.74"></polygon>
</g>
<!-- Rowan -->
<g id="node56" class="node"><title>Rowan</title>
<ellipse fill="lightgrey" stroke="black" cx="1909" cy="-531" rx="38.2838" ry="18"></ellipse>
<text text-anchor="middle" x="1909" y="-526.8" font-family="Times,serif" font-size="14.00">Rowan</text>
</g>
<!-- J&#45;&gt;Rowan -->
<g id="edge74" class="edge"><title>J-&gt;Rowan</title>
<path fill="none" stroke="black" d="M1458.28,-630.609C1485.53,-615.83 1535.9,-590.362 1582,-577 1678.47,-549.042 1796.1,-537.792 1860.39,-533.486"></path>
<polygon fill="black" stroke="black" points="1860.86,-536.963 1870.62,-532.829 1860.41,-529.977 1860.86,-536.963"></polygon>
</g>
<!-- J&#45;&gt;I -->
<g id="edge72" class="edge"><title>J-&gt;I</title>
<path fill="none" stroke="black" d="M1463.94,-643.987C1542.98,-650.041 1780.98,-668.271 1872.04,-675.245"></path>
<polygon fill="black" stroke="black" points="1871.9,-678.745 1882.14,-676.019 1872.44,-671.766 1871.9,-678.745"></polygon>
</g>
<!-- J&#45;&gt;Glee -->
<g id="edge70" class="edge"><title>J-&gt;Glee</title>
<path fill="none" stroke="black" d="M1448.62,-658.765C1469.67,-690.365 1520.07,-758.23 1582,-788 1677.51,-833.913 1806.57,-831.019 1869.83,-826.032"></path>
<polygon fill="black" stroke="black" points="1870.47,-829.49 1880.13,-825.154 1869.87,-822.516 1870.47,-829.49"></polygon>
</g>
<!-- J&#45;&gt;SaC -->
<g id="edge76" class="edge"><title>J-&gt;SaC</title>
<path fill="none" stroke="black" d="M1455.73,-628.798C1482.47,-609.125 1535,-571.392 1582,-543 1680.02,-483.794 1705.36,-469.511 1810,-423 1831.16,-413.596 1855.6,-404.614 1874.78,-397.974"></path>
<polygon fill="black" stroke="black" points="1875.96,-401.271 1884.29,-394.725 1873.69,-394.647 1875.96,-401.271"></polygon>
</g>
<!-- Julia -->
<g id="node80" class="node"><title>Julia</title>
<ellipse fill="lightgrey" stroke="black" cx="1229" cy="-236" rx="29.0509" ry="18"></ellipse>
<text text-anchor="middle" x="1229" y="-231.8" font-family="Times,serif" font-size="14.00">Julia</text>
</g>
<!-- MATLAB&#45;&gt;Julia -->
<g id="edge92" class="edge"><title>MATLAB-&gt;Julia</title>
<path fill="none" stroke="black" d="M1047.98,-236C1090.61,-236 1150.5,-236 1189.28,-236"></path>
<polygon fill="black" stroke="black" points="1189.63,-239.5 1199.63,-236 1189.63,-232.5 1189.63,-239.5"></polygon>
</g>
<!-- Mathematica&#45;&gt;Julia -->
<g id="edge94" class="edge"><title>Mathematica-&gt;Julia</title>
<path fill="none" stroke="black" d="M1038.83,-177.039C1082.91,-190.778 1151.56,-212.176 1192.92,-225.065"></path>
<polygon fill="black" stroke="black" points="1191.97,-228.436 1202.56,-228.07 1194.05,-221.753 1191.97,-228.436"></polygon>
</g>
<!-- R&#45;&gt;Rowan -->
<g id="edge110" class="edge"><title>R-&gt;Rowan</title>
<path fill="none" stroke="black" d="M1022.32,-386.141C1147.31,-406.584 1699.11,-496.834 1862.36,-523.535"></path>
<polygon fill="black" stroke="black" points="1862.1,-527.04 1872.54,-525.2 1863.23,-520.132 1862.1,-527.04"></polygon>
</g>
<!-- R&#45;&gt;Julia -->
<g id="edge108" class="edge"><title>R-&gt;Julia</title>
<path fill="none" stroke="black" d="M1016.3,-369.803C1056.94,-344.114 1151.54,-284.322 1199.31,-254.131"></path>
<polygon fill="black" stroke="black" points="1201.35,-256.981 1207.94,-248.68 1197.62,-251.064 1201.35,-256.981"></polygon>
</g>
<!-- Nial&#45;&gt;SaC -->
<g id="edge104" class="edge"><title>Nial-&gt;SaC</title>
<path fill="none" stroke="black" d="M1254.82,-133.583C1325.85,-152.742 1535.55,-211.543 1702,-281 1767.29,-308.244 1840.11,-348.093 1879.29,-370.363"></path>
<polygon fill="black" stroke="black" points="1877.63,-373.442 1888.05,-375.364 1881.1,-367.364 1877.63,-373.442"></polygon>
</g>
<!-- IDL -->
<g id="node94" class="node"><title>IDL</title>
<ellipse fill="lightgrey" stroke="black" cx="1229" cy="-18" rx="27.2447" ry="18"></ellipse>
<text text-anchor="middle" x="1229" y="-13.8" font-family="Times,serif" font-size="14.00">IDL</text>
</g>
<!-- SOL&#45;&gt;IDL -->
<g id="edge116" class="edge"><title>SOL-&gt;IDL</title>
<path fill="none" stroke="black" d="M1025.33,-18C1067.13,-18 1145.35,-18 1191.43,-18"></path>
<polygon fill="black" stroke="black" points="1191.59,-21.5001 1201.59,-18 1191.59,-14.5001 1191.59,-21.5001"></polygon>
</g>
<!-- APL\\iv -->
<g id="node37" class="node"><title>APL\\iv</title>
<ellipse fill="lightgrey" stroke="black" cx="2176" cy="-1113" rx="39.4428" ry="18"></ellipse>
<text text-anchor="middle" x="2176" y="-1108.8" font-family="Times,serif" font-size="14.00">APL\iv</text>
</g>
<!-- APL\\iv&#45;&gt;BQN -->
<g id="edge34" class="edge"><title>APL\\iv-&gt;BQN</title>
<path fill="none" stroke="black" d="M2215.65,-1113C2249.81,-1113 2299.49,-1113 2334.27,-1113"></path>
<polygon fill="black" stroke="black" points="2334.55,-1116.5 2344.55,-1113 2334.55,-1109.5 2334.55,-1116.5"></polygon>
</g>
<!-- Co&#45;dfns -->
<g id="node39" class="node"><title>Co-dfns</title>
<ellipse fill="lightgrey" stroke="black" cx="2176" cy="-1040" rx="42.2952" ry="18"></ellipse>
<text text-anchor="middle" x="2176" y="-1035.8" font-family="Times,serif" font-size="14.00">Co-dfns</text>
</g>
<!-- Co&#45;dfns&#45;&gt;BQN -->
<g id="edge36" class="edge"><title>Co-dfns-&gt;BQN</title>
<path fill="none" stroke="black" d="M2208.37,-1051.57C2244.11,-1064.74 2302.36,-1086.22 2339.67,-1099.97"></path>
<polygon fill="black" stroke="black" points="2338.54,-1103.29 2349.14,-1103.46 2340.96,-1096.72 2338.54,-1103.29"></polygon>
</g>
<!-- Dyalog APL&#45;&gt;BQN -->
<g id="edge44" class="edge"><title>Dyalog APL-&gt;BQN</title>
<path fill="none" stroke="black" d="M1655.92,-1167.68C1681.14,-1200.52 1740.6,-1269.94 1810,-1296 1892.38,-1326.93 1921.05,-1309.58 2008,-1296 2113.13,-1279.58 2142.1,-1273.04 2236,-1223 2280.79,-1199.13 2325.57,-1160.35 2351.75,-1135.79"></path>
<polygon fill="black" stroke="black" points="2354.42,-1138.08 2359.26,-1128.66 2349.6,-1133.01 2354.42,-1138.08"></polygon>
</g>
<!-- Dyalog APL&#45;&gt;GNU APL -->
<g id="edge52" class="edge"><title>Dyalog APL-&gt;GNU APL</title>
<path fill="none" stroke="black" d="M1646.16,-1168.12C1657.33,-1226.91 1700.37,-1414.4 1810,-1516 1821.89,-1527.02 1837.43,-1534.73 1852.62,-1540.1"></path>
<polygon fill="black" stroke="black" points="1851.91,-1543.55 1862.5,-1543.31 1854.07,-1536.89 1851.91,-1543.55"></polygon>
</g>
<!-- Dyalog APL&#45;&gt;NARS2000 -->
<g id="edge50" class="edge"><title>Dyalog APL-&gt;NARS2000</title>
<path fill="none" stroke="black" d="M1649.21,-1168.21C1666.85,-1217.5 1721.77,-1355.15 1810,-1435 1823.69,-1447.39 1841.38,-1456.92 1857.96,-1463.94"></path>
<polygon fill="black" stroke="black" points="1856.96,-1467.31 1867.55,-1467.79 1859.57,-1460.82 1856.96,-1467.31"></polygon>
</g>
<!-- Dyalog APL&#45;&gt;APL\\iv -->
<g id="edge40" class="edge"><title>Dyalog APL-&gt;APL\\iv</title>
<path fill="none" stroke="black" d="M1700.69,-1145.99C1806.19,-1138.65 2028.39,-1123.2 2126.58,-1116.37"></path>
<polygon fill="black" stroke="black" points="2127.08,-1119.84 2136.81,-1115.66 2126.59,-1112.86 2127.08,-1119.84"></polygon>
</g>
<!-- Dyalog APL&#45;&gt;Co&#45;dfns -->
<g id="edge46" class="edge"><title>Dyalog APL-&gt;Co-dfns</title>
<path fill="none" stroke="black" d="M1691.59,-1139.76C1724.9,-1132.76 1770.12,-1123.28 1810,-1115 1923.87,-1091.37 2057.81,-1063.94 2127.47,-1049.7"></path>
<polygon fill="black" stroke="black" points="2128.59,-1053.05 2137.68,-1047.62 2127.19,-1046.19 2128.59,-1053.05"></polygon>
</g>
<!-- Dyalog APL&#45;&gt;KAP -->
<g id="edge38" class="edge"><title>Dyalog APL-&gt;KAP</title>
<path fill="none" stroke="black" d="M1652.3,-1167.92C1674.2,-1208.41 1733.06,-1307.57 1810,-1361 1864.62,-1398.93 2056.15,-1449.49 2137.74,-1469.89"></path>
<polygon fill="black" stroke="black" points="2137.04,-1473.33 2147.59,-1472.34 2138.73,-1466.53 2137.04,-1473.33"></polygon>
</g>
<!-- Dyalog APL&#45;&gt;April -->
<g id="edge42" class="edge"><title>Dyalog APL-&gt;April</title>
<path fill="none" stroke="black" d="M1660.79,-1132.44C1690.04,-1104.23 1750.96,-1048.21 1810,-1011 1829.78,-998.533 1853.59,-987.52 1872.78,-979.509"></path>
<polygon fill="black" stroke="black" points="1874.14,-982.735 1882.08,-975.713 1871.5,-976.255 1874.14,-982.735"></polygon>
</g>
<!-- Dyalog APL Extended -->
<g id="node50" class="node"><title>Dyalog APL Extended</title>
<ellipse fill="lightgrey" stroke="black" cx="1909" cy="-1260" rx="99.0032" ry="18"></ellipse>
<text text-anchor="middle" x="1909" y="-1255.8" font-family="Times,serif" font-size="14.00">Dyalog APL Extended</text>
</g>
<!-- Dyalog APL&#45;&gt;Dyalog APL Extended -->
<g id="edge48" class="edge"><title>Dyalog APL-&gt;Dyalog APL Extended</title>
<path fill="none" stroke="black" d="M1687.28,-1168.38C1734.64,-1188.04 1809.58,-1219.15 1858.77,-1239.56"></path>
<polygon fill="black" stroke="black" points="1688.49,-1165.09 1677.92,-1164.49 1685.81,-1171.56 1688.49,-1165.09"></polygon>
<polygon fill="black" stroke="black" points="1857.67,-1242.9 1868.25,-1243.5 1860.35,-1236.43 1857.67,-1242.9"></polygon>
</g>
<!-- Dyalog APL&#45;&gt;RAD -->
<g id="edge54" class="edge"><title>Dyalog APL-&gt;RAD</title>
<path fill="none" stroke="black" d="M1651.92,-1132.14C1673.46,-1090.76 1732.31,-987.453 1810,-930 1827.62,-916.968 1850.46,-908.215 1869.66,-902.606"></path>
<polygon fill="black" stroke="black" points="1870.6,-905.977 1879.32,-899.954 1868.75,-899.227 1870.6,-905.977"></polygon>
</g>
<!-- Dyalog APL&#45;&gt;Rowan -->
<g id="edge56" class="edge"><title>Dyalog APL-&gt;Rowan</title>
<path fill="none" stroke="black" d="M1646.21,-1131.82C1658.79,-1063.63 1709.13,-817.993 1810,-642 1829.55,-607.884 1860.73,-574.908 1882.66,-553.89"></path>
<polygon fill="black" stroke="black" points="1885.12,-556.379 1889.99,-546.972 1880.32,-551.286 1885.12,-556.379"></polygon>
</g>
<!-- dzaima/APL -->
<g id="node58" class="node"><title>dzaima/APL</title>
<ellipse fill="lightgrey" stroke="black" cx="2176" cy="-1187" rx="59.6878" ry="18"></ellipse>
<text text-anchor="middle" x="2176" y="-1182.8" font-family="Times,serif" font-size="14.00">dzaima/APL</text>
</g>
<!-- Dyalog APL&#45;&gt;dzaima/APL -->
<g id="edge58" class="edge"><title>Dyalog APL-&gt;dzaima/APL</title>
<path fill="none" stroke="black" d="M1700.69,-1154.01C1799.74,-1160.9 2001.66,-1174.94 2107.24,-1182.29"></path>
<polygon fill="black" stroke="black" points="2107.24,-1185.8 2117.46,-1183 2107.73,-1178.81 2107.24,-1185.8"></polygon>
</g>
<!-- Dyalog APL Extended&#45;&gt;dzaima/APL -->
<g id="edge60" class="edge"><title>Dyalog APL Extended-&gt;dzaima/APL</title>
<path fill="none" stroke="black" d="M1964.27,-1245.05C2010.26,-1232.38 2075.84,-1214.32 2121.58,-1201.71"></path>
<polygon fill="black" stroke="black" points="2122.61,-1205.06 2131.32,-1199.03 2120.75,-1198.31 2122.61,-1205.06"></polygon>
</g>
<!-- dzaima/APL&#45;&gt;BQN -->
<g id="edge118" class="edge"><title>dzaima/APL-&gt;BQN</title>
<path fill="none" stroke="black" d="M2214.24,-1173.08C2250.29,-1159.61 2304.51,-1139.34 2339.84,-1126.14"></path>
<polygon fill="black" stroke="black" points="2341.13,-1129.4 2349.27,-1122.62 2338.67,-1122.84 2341.13,-1129.4"></polygon>
</g>
<!-- I&#45;&gt;BQN -->
<g id="edge64" class="edge"><title>I-&gt;BQN</title>
<path fill="none" stroke="black" d="M1934.96,-672.838C1994.37,-662.085 2145.92,-643.894 2236,-716 2353.64,-810.169 2371.94,-1010.47 2374.62,-1084.62"></path>
<polygon fill="black" stroke="black" points="2371.12,-1084.72 2374.91,-1094.62 2378.12,-1084.52 2371.12,-1084.72"></polygon>
</g>
<!-- ELI -->
<g id="node88" class="node"><title>ELI</title>
<ellipse fill="lightgrey" stroke="black" cx="2176" cy="-752" rx="27" ry="18"></ellipse>
<text text-anchor="middle" x="2176" y="-747.8" font-family="Times,serif" font-size="14.00">ELI</text>
</g>
<!-- Q&#45;&gt;ELI -->
<g id="edge106" class="edge"><title>Q-&gt;ELI</title>
<path fill="none" stroke="black" d="M1936.38,-750.199C1984,-750.558 2084.4,-751.316 2138.54,-751.725"></path>
<polygon fill="black" stroke="black" points="2138.7,-755.226 2148.73,-751.802 2138.76,-748.226 2138.7,-755.226"></polygon>
</g>
<!-- mathematical notation -->
<g id="node96" class="node"><title>mathematical notation</title>
<ellipse fill="white" stroke="white" cx="97" cy="-272" rx="97.2468" ry="18"></ellipse>
<text text-anchor="middle" x="97" y="-267.8" font-family="Times,serif" font-size="14.00">mathematical notation</text>
</g>
<!-- mathematical notation&#45;&gt;APL -->
<g id="edge120" class="edge"><title>mathematical notation-&gt;APL</title>
<path fill="none" stroke="black" d="M194.446,-272C224.839,-272 259.062,-272 291.897,-272"></path>
<polygon fill="black" stroke="black" points="292.037,-275.5 302.037,-272 292.037,-268.5 292.037,-275.5"></polygon>
</g>
</g>
</svg>